# xmcd CD database file
#
# Track frame offsets:
#        150
#        10413
#        23554
#        33135
#        44661
#        55308
#        70049
#        81454
#        93651
#        106131
#        121893
#        132100
#        143553
#        157399
#        169463
#        181950
#        196791
#        211659
#        224597
#        238997
#        250341
#        263855
#        277548
#        290765
#        300207
#        310429
#        322880
#        337712
#
# Disc length: 4701 seconds
#
# Revision: 0
# Processed by: cddbd v1.5.2PL0 Copyright (c) Steve Scherf et al.
# Submitted via: CUERipper 2.1.6
#
DISCID=91125b1c
DTITLE=George Jones - The Tour de Force 1972-1980
DYEAR=2016
DGENRE=Country
TTITLE0=The Weatherman
TTITLE1=She Told Me So
TTITLE2=Mary Don't Go 'Round
TTITLE3=Who Will I Be Loving Now
TTITLE4=Our Private Life
TTITLE5=Memories Of Us
TTITLE6=Touch Of Wilderness
TTITLE7=A Goodbye Joke
TTITLE8=What I Do Best
TTITLE9=She Should Belong To Me
TTITLE10=Have You Seen My Chicken
TTITLE11=She Once Made A Romeo Cry
TTITLE12=Bring On The Clowns
TTITLE13=Hit And Run
TTITLE14=I Just Don't Give A Damn
TTITLE15=He Stopped Loving Her Today
TTITLE16=I've Aged Twenty Years In Five
TTITLE17=Brother To The Blues
TTITLE18=If Drinkin' Don't Kill Me (Her Memory Will)
TTITLE19=His Lovin' Her Is Getting In My Way
TTITLE20=I'm Not Ready Yet
TTITLE21=I'm The One She Missed Him With Today
TTITLE22=Good Hearted Woman
TTITLE23=A Hard Act To Follow
TTITLE24=Bone Dry
TTITLE25=The Battle
TTITLE26=I Can't Get Over What Lovin' You Has Done
TTITLE27=Love Coming Down
EXTD=
EXTT0=
EXTT1=
EXTT2=
EXTT3=
EXTT4=
EXTT5=
EXTT6=
EXTT7=
EXTT8=
EXTT9=
EXTT10=
EXTT11=
EXTT12=
EXTT13=
EXTT14=
EXTT15=
EXTT16=
EXTT17=
EXTT18=
EXTT19=
EXTT20=
EXTT21=
EXTT22=
EXTT23=
EXTT24=
EXTT25=
EXTT26=
EXTT27=
PLAYORDER=
